<?xml version="1.0" encoding="UTF-8"?>
<!--
  Prot2Exon mock logo.
  Visual idea: a horizontal "gene track" with CDS exons (blue) and a
  domain-coding portion (red) connected by chevron-introns, plus the
  wordmark "Prot2Exon" set in a clean sans.
  Replace with a polished asset before tagging v1.0.
-->
<svg xmlns="http://www.w3.org/2000/svg" viewBox="0 0 520 140" role="img"
     aria-label="Prot2Exon logo">
  <defs>
    <linearGradient id="bg" x1="0" y1="0" x2="0" y2="1">
      <stop offset="0%" stop-color="#fbfdff"/>
      <stop offset="100%" stop-color="#f3f7fb"/>
    </linearGradient>
    <style>
      .wm   { font: 700 36px ui-sans-serif, system-ui, "Segoe UI", Roboto, sans-serif; fill: #0f172a; }
      .sub  { font: 400 12px ui-sans-serif, system-ui, sans-serif; fill: #475569; letter-spacing: 0.05em; }
      .cds  { fill: #1f77b4; }
      .cdsd { fill: #d62728; }
      .utr  { fill: #f0c078; }
      .axis { stroke: #94a3b8; stroke-width: 1.5; fill: none; stroke-linecap: round; }
      .chev { stroke: #94a3b8; stroke-width: 1.5; fill: none; stroke-linejoin: round; stroke-linecap: round; }
    </style>
  </defs>

  <!-- gene track -->
  <rect x="8" y="20" width="504" height="44" rx="6" fill="url(#bg)" stroke="#e2e8f0"/>
  <line class="axis" x1="20" y1="42" x2="500" y2="42"/>

  <!-- 5' UTR -->
  <rect class="utr" x="30"  y="36" width="34" height="12"/>
  <!-- CDS exon 1 -->
  <rect class="cds"  x="76"  y="28" width="48" height="28"/>
  <!-- intron + chevrons -->
  <polyline class="chev" points="148,38 154,42 148,46"/>
  <!-- CDS exon 2 (domain-coding) -->
  <rect class="cdsd" x="170" y="28" width="64" height="28"/>
  <polyline class="chev" points="258,38 264,42 258,46"/>
  <!-- CDS exon 3 (domain-coding) -->
  <rect class="cdsd" x="278" y="28" width="56" height="28"/>
  <polyline class="chev" points="358,38 364,42 358,46"/>
  <!-- CDS exon 4 -->
  <rect class="cds"  x="378" y="28" width="44" height="28"/>
  <!-- 3' UTR -->
  <rect class="utr"  x="440" y="36" width="50" height="12"/>

  <!-- big arrowhead -->
  <polyline class="chev" points="492,34 500,42 492,50"/>

  <!-- wordmark -->
  <text class="wm"  x="16" y="108">Prot2Exon</text>
  <text class="sub" x="16" y="128">PROTEIN DOMAIN → GENOMIC STRUCTURE</text>
</svg>
